<?xml version="1.0" standalone="no"?>
<!DOCTYPE svg PUBLIC "-//W3C//DTD SVG 20010904//EN"
 "http://www.w3.org/TR/2001/REC-SVG-20010904/DTD/svg10.dtd">
<svg version="1.0" xmlns="http://www.w3.org/2000/svg"
 width="192.000000pt" height="192.000000pt" viewBox="0 0 192.000000 192.000000"
 preserveAspectRatio="xMidYMid meet">
<metadata>
Created by potrace 1.11, written by Peter Selinger 2001-2013
</metadata>
<g transform="translate(0.000000,192.000000) scale(0.100000,-0.100000)"
fill="#000000" stroke="none">
<path d="M1269 1916 c-2 -2 -17 -6 -34 -9 -16 -3 -41 -8 -55 -11 -55 -13 -88
-19 -163 -29 -71 -10 -81 -9 -122 11 -49 23 -50 23 -54 -28 -1 -19 -11 -72
-22 -116 -29 -121 -30 -123 -36 -204 -5 -68 -3 -78 19 -110 13 -19 36 -41 51
-48 29 -14 127 -24 127 -13 0 4 10 8 22 8 29 3 48 29 41 56 -13 51 -10 132 5
166 72 157 285 162 364 8 32 -63 28 -108 -12 -163 -23 -31 -93 -74 -225 -140
-66 -32 -122 -61 -125 -64 -3 -3 -18 -14 -35 -24 -76 -49 -185 -174 -185 -213
0 -7 -4 -13 -8 -13 -5 0 -9 -6 -10 -12 -1 -20 -10 -57 -17 -68 -3 -5 -8 -37
-11 -72 -3 -35 -7 -72 -8 -83 -7 -52 -94 -48 -122 6 -8 16 -12 29 -10 29 3 0
1 11 -4 24 -5 15 -5 27 3 35 7 7 7 11 1 11 -12 0 -12 29 0 48 4 6 3 12 -2 12
-10 0 -9 30 2 48 4 6 3 12 -2 12 -10 0 -9 30 2 48 4 6 3 12 -2 12 -10 0 -9 30
2 48 4 6 3 12 -2 12 -10 0 -9 30 2 48 4 6 4 12 -1 12 -4 0 -8 16 -8 35 0 19 4
35 9 35 5 0 4 6 -1 13 -5 6 -8 23 -6 37 2 14 3 31 3 38 0 6 0 19 0 27 0 8 0
22 0 30 0 8 0 22 0 30 0 8 0 22 0 30 0 8 0 22 0 30 0 8 0 22 0 30 0 8 0 22 0
30 0 8 0 22 0 30 0 8 0 22 0 30 0 8 0 22 0 30 0 8 0 22 0 30 0 8 0 22 0 30 0
8 0 22 0 30 0 8 0 22 0 30 0 8 0 22 0 30 0 8 0 21 1 28 0 6 -2 24 -4 40 -2 15
0 27 6 27 5 0 4 7 -3 15 -7 8 -9 15 -4 15 5 0 1 5 -8 11 -23 13 -88 -4 -139
-37 -31 -19 -40 -21 -51 -10 -34 33 -72 47 -143 50 -61 4 -91 -6 -131 -42 -29
-25 -72 -92 -59 -92 3 0 2 -8 -3 -17 -6 -10 -6 -27 0 -45 l10 -29 18 21 c17
19 39 25 81 21 9 0 27 -12 40 -25 l24 -24 0 -452 0 -452 -28 -24 c-35 -30
-102 -31 -118 -2 -5 10 -14 18 -20 18 -6 0 -8 -4 -4 -9 3 -5 1 -12 -4 -15 -5
-4 -5 -23 1 -48 32 -145 175 -195 320 -113 40 23 42 23 67 6 55 -38 207 -57
301 -38 38 8 110 38 110 47 0 4 9 10 20 13 11 3 20 1 20 -3 0 -12 80 -49 123
-55 21 -4 69 -7 108 -9 65 -2 103 1 219 19 36 6 140 14 195 16 20 0 91 -13
124 -23 26 -8 35 -7 42 3 4 7 5 17 3 21 -3 4 -2 8 3 8 4 0 9 10 9 23 3 45 8
67 16 67 4 0 7 3 6 8 -1 4 4 32 12 62 8 30 15 64 15 75 0 11 3 25 7 30 10 17
-18 104 -42 130 -38 41 -97 62 -159 59 -74 -5 -107 -29 -103 -75 7 -96 6 -115
-3 -125 -58 -61 -270 -68 -324 -10 -41 43 -28 136 26 191 64 65 93 83 277 176
124 62 188 100 221 134 20 19 76 105 69 105 -3 0 -2 6 4 13 12 14 30 105 26
133 -11 78 -18 104 -42 147 -45 84 -159 169 -258 193 -31 8 -239 16 -245 10z"/>
<path d="M200 341 c-13 -5 -16 -32 -17 -169 -1 -89 1 -162 5 -163 4 0 21 -2
39 -3 l32 -2 -3 52 c-2 30 0 51 5 49 4 -3 5 5 1 17 -4 18 -2 20 16 16 12 -3
23 -1 25 5 2 6 9 -4 16 -21 8 -18 17 -32 22 -32 5 0 9 -5 9 -11 0 -5 10 -24
23 -42 18 -26 29 -32 60 -32 29 -1 37 3 37 17 0 10 -4 18 -10 18 -5 0 -10 6
-10 14 0 8 -3 16 -8 18 -17 7 -70 103 -61 109 6 3 12 12 13 20 10 43 31 81 51
89 17 6 21 14 18 33 -4 20 -10 24 -36 21 -54 -7 -85 -36 -78 -76 0 -5 -4 -8
-10 -8 -5 0 -8 -3 -5 -8 6 -10 -16 -37 -38 -45 -26 -10 -48 10 -36 33 5 9 6
21 2 25 -4 4 -7 20 -7 37 0 33 -26 51 -55 39z"/>
<path d="M726 333 c-4 -8 -6 -50 -6 -94 0 -66 -2 -77 -15 -73 -8 4 -15 9 -15
14 0 14 -152 160 -166 160 -12 0 -14 -27 -12 -167 l3 -168 28 1 c15 1 31 2 35
3 5 0 8 37 7 81 -1 45 1 83 5 85 4 2 44 -33 89 -79 100 -103 111 -108 112 -58
1 47 1 260 0 287 -1 15 -8 20 -31 21 -17 1 -31 -5 -34 -13z"/>
<path d="M948 333 c-69 -29 -100 -80 -101 -164 -1 -50 3 -63 34 -102 19 -25
37 -43 41 -41 3 2 8 -1 10 -7 2 -6 31 -13 65 -16 54 -5 67 -2 106 20 41 25 54
38 55 61 0 5 6 12 12 16 17 10 20 108 5 143 -15 37 -64 89 -76 81 -5 -3 -9 -1
-9 4 0 10 -6 11 -68 15 -23 2 -57 -3 -74 -10z m131 -76 c35 -29 42 -100 14
-148 -39 -65 -161 -43 -167 30 -1 17 -5 33 -8 37 -11 11 23 70 51 87 28 17 85
14 110 -6z"/>
<path d="M1228 342 c-24 -3 -28 -8 -28 -33 0 -29 4 -32 52 -31 27 1 56 -22 41
-31 -4 -3 -6 -58 -3 -123 l5 -118 28 -1 c30 -2 55 19 37 30 -6 4 -7 13 -2 23
5 9 7 28 5 42 -4 29 -4 66 0 130 2 42 4 45 32 46 17 1 36 2 43 3 7 1 12 14 12
32 0 23 -4 30 -15 26 -8 -4 -17 -1 -21 5 -4 7 -9 6 -15 -3 -6 -9 -9 -10 -9 -2
0 12 -24 12 -36 0 -4 -4 -13 -2 -21 4 -10 9 -13 8 -13 -2 0 -9 -3 -10 -8 -4
-7 10 -35 12 -84 7z"/>
<path d="M1545 336 c-59 -26 -78 -68 -61 -127 10 -34 46 -53 126 -64 68 -10
79 -57 18 -79 -28 -10 -85 12 -80 32 2 13 -64 17 -72 4 -11 -19 25 -73 58 -87
98 -41 202 0 210 83 6 65 -35 99 -134 108 -44 5 -69 28 -54 52 6 9 18 17 27
17 9 0 19 3 22 7 6 6 51 -16 65 -32 3 -3 17 -7 33 -8 22 -1 27 2 27 21 0 28
-8 38 -45 63 -36 24 -99 29 -140 10z"/>
</g>
</svg>
