<svg xmlns="http://www.w3.org/2000/svg" id="Слой_1" width="50" height="50">
  <style>
    .st1{fill:#fff}
  </style>
  <path d="M25 2c12.683 0 23 10.317 23 22.999C48 37.682 37.683 48 25 48S2 37.682 2 24.999C2 12.317 12.317 2 25 2m0-2C11.193 0 0 11.192 0 24.999 0 38.807 11.193 50 25 50c13.808 0 25-11.193 25-25.001C50 11.192 38.808 0 25 0z" class="st1"/>
  <path d="M36.13 10.304a4.899 4.899 0 0 0-4.814 4.027H12.47a.866.866 0 0 0-.65 1.437l10.825 12.294a.864.864 0 0 0 .649.293h.144c.006 3.292.006 6.637 0 9.968h-3.375a.865.865 0 1 0 0 1.73h8.474a.864.864 0 1 0 0-1.73h-3.368c.006-3.332.006-6.676-.001-9.968h.139c.249 0 .485-.105.65-.292l7.643-8.681a4.888 4.888 0 0 0 2.53.705h.002c2.696 0 4.891-2.193 4.891-4.89s-2.195-4.893-4.891-4.893zm-1.914 5.757l-1.395 1.583-.002.002v.002l-.625.71H16.405l-2.021-2.297h19.832zm-9.301 10.565h-1.231l-5.757-6.54H30.67l-5.756 6.54zm11.216-8.269h-.001c-.475 0-.939-.108-1.36-.306l2.01-2.283a.865.865 0 0 0-.65-1.437h-3.04a3.167 3.167 0 0 1 3.04-2.297 3.166 3.166 0 0 1 3.163 3.162 3.166 3.166 0 0 1-3.162 3.161zm0 0" class="st1"/>
</svg>
