<?xml version="1.0" encoding="utf-8"?>
<!-- Generator: Adobe Illustrator 21.1.0, SVG Export Plug-In . SVG Version: 6.00 Build 0)  -->
<svg version="1.1" id="Слой_1" xmlns="http://www.w3.org/2000/svg" xmlns:xlink="http://www.w3.org/1999/xlink" x="0px" y="0px"
	 width="50px" height="50px" viewBox="0 0 50 50" style="enable-background:new 0 0 50 50;" xml:space="preserve">
<style type="text/css">
	.st0{fill:#FFFFFF;}
</style>
<g>
	<g>
		<path class="st0" d="M30.2871,13.3198l-4.6377,8.1739c-0.3516,0.6191-0.3477,1.3789,0.0107,1.9931
			c0.3584,0.6153,1.0166,0.9932,1.7285,0.9932h2.51571L22.458,33.8315l1.4179-3.5419c0.2442-0.6123,0.1719-1.3057-0.1943-1.8536
			c-0.3662-0.5478-0.9785-0.8798-1.6377-0.8896l-4.4111-0.0557l6.7607-14.0468c0.0313-0.0499,0.1416-0.1182,0.1914-0.1241H30.2871
			 M31.3232,11.3198h-6.7383c-0.80559,0-1.64059,0.5235-1.9892,1.2481l-7.1455,14.8476c-0.2344,0.4825-0.2198,0.9961,0.0322,1.4024
			c0.2578,0.4101,0.709,0.6504,1.2451,0.6621l5.291,0.0664l-3.8291,9.5723c-0.0937,0.2402-0.293,0.7382,0.0586,1.2539
			c0.15531,0.2265,0.4189,0.3632,0.6914,0.3632h0.0615c0.5186,0,0.8291-0.3925,0.9785-0.58l12.3721-15.5391
			c0.5303-0.6621,0.3106-1.2539,0.2315-1.4258c-0.0821-0.1679-0.4161-0.7109-1.2569-0.7109h-3.9375l5.1504-9.0781
			c0.2696-0.4766,0.2871-0.9961,0.0381-1.418C32.331,11.562,31.874,11.3198,31.3232,11.3198L31.3232,11.3198z"/>
	</g>
	<g>
		<path class="st0" d="M25,2.0005c12.6826,0,23,10.3174,23,22.999c0,12.6826-10.3174,23-23,23c-12.68269,0-23-10.3174-23-23
			C2,12.3179,12.31731,2.0005,25,2.0005 M25,0.0005c-13.80669,0-25,11.1924-25,24.999c0,13.8076,11.19331,25,25,25
			c13.8076,0,25-11.1924,25-25C50,11.1929,38.8076,0.0005,25,0.0005L25,0.0005z"/>
	</g>
</g>
</svg>
