<?xml version="1.0" encoding="utf-8"?>
<!-- Generator: Adobe Illustrator 21.1.0, SVG Export Plug-In . SVG Version: 6.00 Build 0)  -->
<svg version="1.1" id="Слой_1" xmlns="http://www.w3.org/2000/svg" xmlns:xlink="http://www.w3.org/1999/xlink" x="0px" y="0px"
	 width="50px" height="50px" viewBox="0 0 50 50" style="enable-background:new 0 0 50 50;" xml:space="preserve">
<style type="text/css">
	.st0{fill:#FFFFFF;}
</style>
<g>
	<g>
		<g>
			<path class="st0" d="M25,2c12.6816,0,23,10.3173,23,22.999C48,37.6816,37.6816,48,25,48C12.3164,48,2,37.6816,2,24.999
				C2,12.3173,12.3164,2,25,2 M25,0C11.1933,0,0,11.1923,0,24.999C0,38.8066,11.1933,50,25,50c13.8066,0,25-11.1934,25-25.001
				C50,11.1923,38.8066,0,25,0L25,0z"/>
		</g>
	</g>
	<g>
		<g>
			<path class="st0" d="M20.1611,14.3418c0.1973,0.4023,0.0391,0.8876-0.3642,1.0839c-4.167,2.0264-6.73538,6.1621-6.73538,10.793
				v3.2734c0,0.4473-0.39942,0.8438-0.84571,0.8438h-1.6914c-1.37889,0-2.5088-1.1543-2.5088-2.5332v-3.7002
				c0-1.0898,0.7012-2.0469,1.7402-2.3809c0.4258-0.1377,0.8868,0.0957,1.0235,0.5235c0.1386,0.4258-0.0977,0.8828-0.5235,1.0195
				c-0.36228,0.1162-0.6201,0.4609-0.6201,0.8379v3.7002c0,0.4844,0.4053,0.9121,0.8887,0.9121h0.915v-2.4961
				c0-2.6045,0.7188-5.1348,2.1133-7.3193c1.3574-2.125,3.2549-3.8301,5.5176-4.9317
				C19.4717,13.7714,19.9658,13.9394,20.1611,14.3418L20.1611,14.3418z M29.3633,16.1035c0.3984-0.4053,0.7734-0.7901,0.7734-1.7022
				c0-1.2656-1.0293-2.2969-2.2949-2.2969c-1.2676,0-2.2998,1.0313-2.2998,2.2969c0,0.4492,0.3642,0.8115,0.8134,0.8115
				c0.4463,0,0.8106-0.3623,0.8106-0.8115c0-0.372,0.3018-0.6748,0.6758-0.6748c0.3711,0,0.6728,0.3028,0.6728,0.6748
				c0,0.25,0,0.25-0.3095,0.5674c-0.0489,0.0479-0.0967,0.0986-0.1514,0.1553L25.7754,17.5
				c-0.003,0.0068-0.0108,0.0127-0.0108,0.0205l-0.0078,0.0019l-0.0039,0.001c-0.0019,0-0.0019,0-0.0019,0
				c-0.06448,0.0713-0.1124,0.1494-0.14748,0.2324c-0.03812,0.0947-0.06152,0.1983-0.06152,0.3076
				c0,0.1133,0.0254,0.2227,0.0674,0.3213c0.041,0.0967,0.0898,0.1865,0.1689,0.2627h-0.0137c0,0.002,0.0157-0.0254,0.0157-0.0254
				h0.0078l0.0029,0.0157l0.0049,0.0068c0.0791,0.0752,0.1699,0.1357,0.26661,0.1728c0.07908,0.0303,0.164,0.0508,0.25578,0.0547
				l0.002,0.0098c0.0117,0,0.0225,0.0107,0.03322,0.0107h2.916c0.44728,0,0.81058-0.3623,0.81058-0.8115
				c0-0.4473-0.3633-0.8105-0.81058-0.8105H28.2578l0.9658-1.0137C29.2724,16.205,29.3183,16.1494,29.3633,16.1035L29.3633,16.1035z
				 M41.9844,24.1025v3.6982c0,1.3809-1.086,2.5352-2.46588,2.5352H38.0224c-0.4931,1.5312-1.2724,3.0176-2.3252,4.3418
				c-1.7265,2.1777-4.1025,3.7617-6.7451,4.5605c-0.1201,1.334-1.2451,2.3614-2.6093,2.3614h-2.6436
				c-1.4434,0-2.6162-1.17-2.6162-2.6133c0-1.4434,1.1728-2.6133,2.6162-2.6133h2.6436c0.9501,0,1.7841,0.5254,2.2441,1.2852
				c4.9971-1.5469,8.4307-6.1446,8.4307-11.4395c0-1.1982-0.1739-2.3721-0.5186-3.5029c-1.5693,1.2422-3.5518,1.9844-5.7041,1.9844
				c-5.0791,0-9.2109-4.1319-9.2109-9.21s4.1318-9.208,9.2109-9.208c5.0781,0,9.2109,4.1328,9.2109,9.2109
				c0,2.2832-0.8359,4.3789-2.2158,5.9893c0.5654,1.5176,0.8496,3.1201,0.8496,4.7539c0,0.834-0.0742,1.668-0.2187,2.4785h1.09762
				c0.48538,0,0.84378-0.4277,0.84378-0.9141v-3.6982c0-0.377-0.2393-0.7217-0.5996-0.8379
				c-0.4268-0.1367-0.6475-0.5937-0.5088-1.0195c0.1367-0.4278,0.584-0.6612,1.0097-0.5235
				C41.3047,22.0556,41.9844,23.0127,41.9844,24.1025L41.9844,24.1025z M27.3408,39c0-0.0664-0.0068-0.1133-0.0205-0.1758
				c-0.001-0.0098-0.0039-0.0293-0.0059-0.0371c-0.1006-0.4434-0.497-0.793-0.9697-0.793h-2.6455
				c-0.5479,0-0.9941,0.4434-0.9941,0.9922c0,0.5488,0.4462,0.9902,0.9941,0.9902h2.6455
				C26.8926,39.9765,27.3408,39.5488,27.3408,39L27.3408,39z M38.3818,15.4892c0-4.1836-3.40228-7.5879-7.5869-7.5879
				c-4.1855,0-7.5889,3.4043-7.5889,7.5879c0,4.1856,3.4034,7.5879,7.5889,7.5879C34.97952,23.0771,38.3818,19.6748,38.3818,15.4892
				L38.3818,15.4892z M35.2314,12.1347h0.001h-0.00288c-0.44732,0-0.81351,0.333-0.81351,0.7813v1.5049
				c0,0.3652-0.3096,0.6601-0.6768,0.6601c-0.372,0-0.67569-0.3037-0.67569-0.6758V12.916c0-0.4483-0.36242-0.8116-0.81161-0.8116
				c-0.4472,0-0.8105,0.3633-0.8105,0.8116v1.4892c0,1.2666,1.0312,2.2969,2.2978,2.2969c0.2364,0,0.4952-0.0352,0.6768-0.1016
				v1.4629c0,0.4473,0.3613,0.8106,0.8086,0.8106c0.4492,0,0.8115-0.3633,0.8115-0.8106V12.916
				C36.0361,12.4677,35.6806,12.1347,35.2314,12.1347L35.2314,12.1347z M35.2314,12.1347"/>
		</g>
	</g>
</g>
</svg>
