<?xml version="1.0" encoding="utf-8"?>
<!-- Generator: Adobe Illustrator 21.1.0, SVG Export Plug-In . SVG Version: 6.00 Build 0)  -->
<svg version="1.1" id="Layer_1" xmlns="http://www.w3.org/2000/svg" xmlns:xlink="http://www.w3.org/1999/xlink" x="0px" y="0px"
	 viewBox="0 0 34 34" style="enable-background:new 0 0 34 34;" xml:space="preserve">
<style type="text/css">
	.st0{fill:#007AAA;}
</style>
<g>
	<path class="st0" d="M10.2,8.2c1.2,0,2.2,1,2.2,2.2c0,1.2-1.1,2.2-2.2,2.2C9,12.5,8,11.6,8,10.3C8,9.1,9,8.2,10.2,8.2"/>
	<path class="st0" d="M11.4,25.8H8.9c-0.3,0-0.6-0.3-0.6-0.6V14.4c0-0.3,0.2-0.6,0.6-0.6h2.5c0.3,0,0.6,0.3,0.6,0.6v10.9
		C12,25.6,11.7,25.8,11.4,25.8"/>
	<path class="st0" d="M26,17.5c0-2.3-1.7-4.1-4-4.1h-0.7c-1.2,0-2.5,0.6-3.1,1.6c-0.2,0.2-0.3,0.3-0.3,0.3v-1.2
		c0-0.1-0.2-0.3-0.3-0.3h-3.1c-0.1,0-0.3,0.1-0.3,0.3v11.6c0,0.1,0.2,0.2,0.3,0.2h3.4c0.1,0,0.3-0.1,0.3-0.2v-6.7
		c0-1.1,0.9-2.1,2-2.1c0.6,0,1.1,0.2,1.5,0.6c0.4,0.4,0.5,0.9,0.5,1.5v6.7c0,0.1,0.2,0.3,0.3,0.3h3.1c0.1,0,0.3-0.2,0.3-0.3L26,17.5
		L26,17.5z"/>
</g>
</svg>
