<?xml version="1.0" encoding="utf-8"?>
<!-- Generator: Adobe Illustrator 21.1.0, SVG Export Plug-In . SVG Version: 6.00 Build 0)  -->
<svg version="1.1" id="Слой_1" xmlns="http://www.w3.org/2000/svg" xmlns:xlink="http://www.w3.org/1999/xlink" x="0px" y="0px"
	 width="50px" height="50px" viewBox="0 0 50 50" style="enable-background:new 0 0 50 50;" xml:space="preserve">
<style type="text/css">
	.st0{fill:#282828;}
</style>
<g>
	<g>
		<g>
			<path class="st0" d="M25,1.99955c12.6826,0,23,10.3183,23,23.0009c0,12.6817-10.3174,23-23,23c-12.6827,0-23-10.3183-23-23
				C2,12.31785,12.3173,1.99955,25,1.99955 M25-0.00045c-13.8067,0-25,11.1933-25,25.0009c0,13.8067,11.1933,25,25,25
				c13.8076,0,25-11.1933,25-25C50,11.19285,38.8076-0.00045,25-0.00045L25-0.00045z"/>
		</g>
	</g>
	<g>
		<g>
			<path class="st0" d="M24.9726,20.76705c-0.1328,0-0.2422,0.1084-0.2422,0.2393c0,0.1318,0.1094,0.2393,0.2422,0.2393
				c0.1309,0,0.2383-0.1075,0.2383-0.2393C25.2109,20.87545,25.1035,20.76705,24.9726,20.76705L24.9726,20.76705z M24.9726,20.76705
				"/>
		</g>
		<g>
			<path class="st0" d="M24.9707,17.69285c-3.1387,0-5.6817,3.086-5.6817,6.8936c0,3.8066,2.543,6.8925,5.6817,6.8925
				c3.1367,0,5.6796-3.0859,5.6796-6.8925C30.6503,20.77885,28.1074,17.69285,24.9707,17.69285L24.9707,17.69285z M28.6953,25.28755
				c0.0586,0.0254,0.1054,0.084,0.1191,0.1504l0.3086,1.6368c0.0176,0.0957-0.0293,0.1914-0.1211,0.2304
				c-0.0898,0.041-0.1953,0.0156-0.2539-0.0625l-0.332-0.4277c-0.6485,1.0508-1.6719,1.9316-2.8496,2.1601l-0.4454,0.4473
				c-0.0839,0.082-0.21679,0.082-0.29879,0l-0.44721-0.4473c-1.17779-0.2285-2.1993-1.1093-2.8497-2.1601l-0.3339,0.4277
				c-0.0586,0.0781-0.16219,0.1035-0.252,0.0625c-0.0898-0.039-0.1387-0.1347-0.1191-0.2304l0.3086-1.6368
				c0.0117-0.0664,0.0586-0.125,0.1211-0.1504c0.0625-0.0293,0.1347-0.0253,0.1914,0.0118l1.4277,0.8574
				c0.084,0.0508,0.12111,0.1523,0.0918,0.2461c-0.0293,0.0918-0.1172,0.1504-0.2168,0.1465l-0.5547-0.0411
				c0.5293,0.7149,1.332,1.0079,2.25,1.0821v-4.6778h-0.4609c-0.07229,0.0567-0.1641,0.0918-0.2618,0.0918
				c-0.246,0-0.4453-0.2021-0.4453-0.4462c0-0.2461,0.1993-0.4454,0.4453-0.4454c0.0977,0,0.18951,0.0352,0.2618,0.0899h0.4609
				v-0.6436c-0.2637-0.1728-0.4355-0.4687-0.4355-0.8047c0-0.5322,0.4355-0.9668,0.9687-0.9668
				c0.5332,0,0.9649,0.4346,0.9649,0.9668c0,0.336-0.1719,0.6319-0.4317,0.8047v0.6436h0.459
				c0.0703-0.0547,0.1641-0.0899,0.2617-0.0899c0.2461,0,0.4453,0.1993,0.4453,0.4454c0,0.2441-0.1992,0.4462-0.4453,0.4462
				c-0.0976,0-0.1914-0.0351-0.2617-0.0918h-0.459v4.6778c0.916-0.0742,1.7168-0.3672,2.2481-1.0821l-0.5586,0.0411
				c-0.0957,0.0039-0.1856-0.0547-0.2129-0.1465c-0.0293-0.0938,0.00781-0.1953,0.08981-0.2461l1.42579-0.8574
				C28.5566,25.26225,28.6308,25.25825,28.6953,25.28755L28.6953,25.28755z M28.6953,25.28755"/>
		</g>
		<g>
			<g>
				<path class="st0" d="M25.02921,33.21925v-0.0078c-0.01951,0-0.039,0.0058-0.05851,0.0058c-1.2247,0-2.3731-0.3652-3.3868-0.9961
					c-5.38669,0.1953-8.5586,0.8164-9.00969,1.2286c1.02149,2.6777,6.17769,5.6621,12.39649,5.6621l0,0
					c0.01951,0,0.039,0.0019,0.05851,0.0019c6.21879,0,11.37309-2.9824,12.39459-5.6601c-0.4512-0.4122-3.6231-1.0332-9.0078-1.2266
					C27.4023,32.85395,26.2539,33.21925,25.02921,33.21925z"/>
			</g>
			<g>
				<path class="st0" d="M25.02921,10.89015v-0.002c-0.01951,0-0.039-0.0009-0.05851-0.0009
					c-9.4063,0-17.73249,6.8085-17.73249,12.4472c0,2.836,2.541,4.457,5.14069,5.3926v2.9902
					c1.664-0.6386,4.5488-0.9668,7.3457-1.1308c-0.0137-0.0176-0.0293-0.0313-0.043-0.0489
					c-0.6152-0.7597-1.1172-1.6503-1.4649-2.6328c-0.0214-0.0664-0.039-0.1367-0.06249-0.205
					c-0.31051-0.9512-0.49021-1.9805-0.49021-3.0606c0-0.2227,0.0156-0.4414,0.0293-0.6602
					c-3.6308,0.3614-5.3867,0.9942-5.6504,1.7149l-0.0019,1.1738c-1.4571-0.7109-3.0059-2.0781-3.0059-3.4883
					c0-4.3291,6.8438-11.0048,15.9356-11.0048v0.0058c0.01951,0,0.039-0.0039,0.05851-0.0039
					c9.09179,0,15.93359,6.6777,15.93359,11.0088c0,1.4062-1.5468,2.7773-3.0039,3.4863l-0.0019-1.1718
					c-0.2656-0.7227-2.0195-1.3536-5.6504-1.7168c0.0137,0.2187,0.0293,0.4375,0.0293,0.6601c0,1.0801-0.17969,2.1074-0.4902,3.0606
					c-0.02349,0.0664-0.0411,0.1386-0.06449,0.205c-0.34571,0.9844-0.84961,1.8731-1.46291,2.6328
					c-0.0137,0.0176-0.0293,0.0333-0.043,0.0489c2.79691,0.1621,5.6797,0.4941,7.3457,1.1328v-2.9922
					c2.5997-0.9336,5.1407-2.5566,5.1407-5.3926C42.7617,17.69875,34.4355,10.89015,25.02921,10.89015z"/>
			</g>
		</g>
	</g>
</g>
</svg>
