<?xml version="1.0" encoding="utf-8"?>
<!-- Generator: Adobe Illustrator 21.1.0, SVG Export Plug-In . SVG Version: 6.00 Build 0)  -->
<svg version="1.1" id="Слой_1" xmlns="http://www.w3.org/2000/svg" xmlns:xlink="http://www.w3.org/1999/xlink" x="0px" y="0px"
	 width="50px" height="50px" viewBox="0 0 50 50" style="enable-background:new 0 0 50 50;" xml:space="preserve">
<style type="text/css">
	.st0{opacity:0.5;}
	.st1{fill:#FFFFFF;}
</style>
<g class="st0">
	<g>
		<g>
			<path class="st1" d="M25,2.0005c12.68259,0,23,10.3174,23,23s-10.31741,22.999-23,22.999c-12.68261,0-23-10.3164-23-22.999
				S12.31739,2.0005,25,2.0005 M25,0.0005c-13.80661,0-25,11.1934-25,25c0,13.8076,11.19339,24.999,25,24.999
				c13.80759,0,25-11.1914,25-24.999C50,11.1939,38.80759,0.0005,25,0.0005L25,0.0005z"/>
		</g>
	</g>
	<g>
		<g>
			<g>
				<path class="st1" d="M37.15719,27.6978h-5.7138c-0.5782,0-1.0479-0.4707-1.0479-1.0489c0-0.5781,0.4697-1.0468,1.0479-1.0468
					h4.8359c0.17771-2.2891,0.1016-9.8702-4.2227-12.8184l-0.68159,1.875c-0.19921,0.543-0.80181,0.8203-1.34281,0.625
					c-0.5439-0.1973-0.82319-0.7988-0.626-1.3418l1.1026-3.0293c0.0996-0.2734,0.3096-0.4932,0.5771-0.6064
					c0.2696-0.1123,0.5723-0.1104,0.8379,0.0107c7.4434,3.3584,6.7461,15.5176,6.1895,16.7617
					C37.94429,27.4536,37.56929,27.6978,37.15719,27.6978z"/>
			</g>
		</g>
	</g>
	<g>
		<g>
			<g>
				<path class="st1" d="M35.25779,36.0327h-7.876c-0.5781,0-1.04779-0.4687-1.04779-1.0469c0-0.5781,0.46969-1.0488,1.04779-1.0488
					H34.956l4.21389-2.6406h-2.164c-0.5782,0-1.04789-0.4707-1.04789-1.0488c0-0.5782,0.46969-1.0469,1.04789-1.0469h5.8046
					c0.4668,0,0.878,0.3086,1.0069,0.7578c0.1289,0.4492-0.0547,0.9297-0.4502,1.1777l-7.5528,4.7364
					C35.64749,35.978,35.45509,36.0327,35.25779,36.0327z"/>
			</g>
		</g>
	</g>
	<g>
		<g>
			<g>
				<path class="st1" d="M28.79589,27.6958H14.583c-0.34181,0-0.66211-0.166-0.85841-0.4473
					c-0.1953-0.2793-0.2432-0.6367-0.126-0.9589l7.0635-19.4063c0.0996-0.2734,0.3086-0.4941,0.5772-0.6074
					c0.2695-0.1133,0.5722-0.1094,0.8378,0.0107c9.1016,4.1075,8.2872,19.4248,7.6748,20.7901
					C29.583,27.4536,29.209,27.6958,28.79589,27.6958z M16.07909,25.6001h11.8418c0.2793-2.8398,0.2812-13.1387-5.7022-16.8691
					L16.07909,25.6001z"/>
			</g>
		</g>
	</g>
	<g>
		<g>
			<g>
				<path class="st1" d="M24.97749,37.2749H9.77729c-0.5,0-0.9306-0.3555-1.02729-0.8457l-1.17971-5.9785
					c-0.0605-0.3066,0.0195-0.625,0.2178-0.8672c0.1992-0.2422,0.4961-0.3828,0.8095-0.3828h25.9112
					c0.4668,0,0.8779,0.3086,1.0068,0.7578c0.1289,0.4492-0.0547,0.9297-0.4502,1.1777l-9.5312,5.9786
					C25.36719,37.2183,25.17479,37.2749,24.97749,37.2749z M10.63869,35.1792h14.0371l6.1924-3.8828H9.87209L10.63869,35.1792z"/>
			</g>
		</g>
	</g>
</g>
</svg>
