<?xml version="1.0" encoding="utf-8"?>
<!-- Generator: Adobe Illustrator 21.1.0, SVG Export Plug-In . SVG Version: 6.00 Build 0)  -->
<svg version="1.1" id="Слой_1" xmlns="http://www.w3.org/2000/svg" xmlns:xlink="http://www.w3.org/1999/xlink" x="0px" y="0px"
	 width="50px" height="50px" viewBox="0 0 50 50" style="enable-background:new 0 0 50 50;" xml:space="preserve">
<style type="text/css">
	.st0{opacity:1;}
	.st1{fill:#FFFFFF;}
</style>
<g class="st0">
	<g>
		<g>
			<path class="st1" d="M25,2c12.6826,0,23,10.3174,23,22.999C48,37.6816,37.6826,48,25,48S2,37.6816,2,24.999
				C2,12.3174,12.3174,2,25,2 M25,0C11.1933,0,0,11.1924,0,24.999C0,38.8066,11.1933,50,25,50c13.8076,0,25-11.1934,25-25.001
				C50,11.1924,38.8076,0,25,0L25,0z"/>
		</g>
	</g>
	<g>
		<path class="st1" d="M36.1308,10.3037c-2.40228,0-4.40428,1.7402-4.8144,4.0274H12.4687c-0.3408,0-0.6494,0.1992-0.789,0.5078
			c-0.1407,0.3095-0.085,0.6738,0.1396,0.9287l10.82421,12.2949c0.16508,0.1875,0.40139,0.293,0.64939,0.293h0.14362
			c0.00678,3.292,0.00678,6.6367,0.001,9.9677h-3.376c-0.47662,0-0.86522,0.3887-0.86522,0.8653
			c0,0.4795,0.3886,0.8652,0.86522,0.8652h8.47458c0.4775,0,0.8652-0.3857,0.8652-0.8652c0-0.4766-0.3877-0.8653-0.8652-0.8653
			h-3.3682c0.0059-3.332,0.0059-6.6757-0.0009-9.9677h0.1386c0.2491,0,0.4854-0.1055,0.6495-0.292l7.6435-8.6817
			c0.7588,0.459,1.6328,0.7051,2.5313,0.7051h0.0009c2.6963,0,4.8916-2.1933,4.8916-4.8906S38.8271,10.3037,36.1308,10.3037
			L36.1308,10.3037z M34.2158,16.0615l-1.3945,1.583c0,0-0.001,0.001-0.002,0.002c0,0,0,0.001-0.001,0.0019l-0.624,0.709h-15.789
			l-2.0215-2.2959H34.2158z M24.915,26.626h-1.2314l-5.7569-6.5391h12.7442L24.915,26.626z M36.1308,18.3574h-0.0009
			c-0.4746,0-0.9385-0.1084-1.36038-0.3066l2.00978-2.2832c0.2246-0.2549,0.28022-0.6192,0.1396-0.9287
			c-0.1396-0.3086-0.4492-0.5078-0.7881-0.5078h-3.041c0.377-1.3243,1.59772-2.2969,3.041-2.2969
			c1.7432,0,3.1621,1.4179,3.1621,3.1621C39.2929,16.9385,37.874,18.3574,36.1308,18.3574L36.1308,18.3574z M36.1308,18.3574"/>
	</g>
</g>
</svg>
