<?xml version="1.0" encoding="utf-8"?>
<!-- Generator: Adobe Illustrator 21.1.0, SVG Export Plug-In . SVG Version: 6.00 Build 0)  -->
<svg version="1.1" id="Слой_1" xmlns="http://www.w3.org/2000/svg" xmlns:xlink="http://www.w3.org/1999/xlink" x="0px" y="0px"
	 viewBox="0 0 50 50" width="50" height="50" style="enable-background:new 0 0 50 50;" xml:space="preserve">
<style type="text/css">
	.st0{opacity:0.5;}
	.st1{fill:#FFFFFF;}
</style>
<g class="st0">
	<g>
		<g>
			<g>
				<path class="st1" d="M14.7119,29.2944h7.5732c0.4619,0,0.8389-0.3476,0.8389-0.7939V16.3101c0-0.3604-0.25779-0.6739-0.59279-0.7627
					c-0.416-0.1133-0.71971,0.0146-0.92481,0.3437l-7.5723,12.1924c-0.1718,0.2734-0.1836,0.543-0.0302,0.793
					C14.1679,29.1431,14.3935,29.2944,14.7119,29.2944L14.7119,29.2944z M21.49021,19.2056v8.5019H16.1279L21.49021,19.2056z
					 M21.49021,19.2056"/>
			</g>
			<g>
				<path class="st1" d="M22.2851,29.4194h-7.5732c-0.34569,0-0.6192-0.1601-0.8145-0.4775c-0.1777-0.29-0.167-0.6094,0.0313-0.9248
					L21.5,15.8257c0.24121-0.3867,0.6064-0.5244,1.0644-0.3994c0.3965,0.1054,0.6846,0.4765,0.6846,0.8838v12.1904
					C23.249,29.0073,22.8164,29.4194,22.2851,29.4194z M22.2509,15.6314c-0.2256,0-0.4023,0.1074-0.5381,0.3261l-7.5722,12.1914
					c-0.1485,0.2364-0.1582,0.4532-0.0303,0.6621c0.1504,0.2452,0.3418,0.3584,0.6016,0.3584h7.5732
					c0.4004,0,0.7139-0.2939,0.7139-0.6689V16.3101c0-0.295-0.21-0.5655-0.5-0.6416
					C22.4101,15.6441,22.3271,15.6314,22.2509,15.6314z M21.49021,27.8325H16.1279c-0.0459,0-0.0879-0.0254-0.1094-0.0644
					c-0.0225-0.0401-0.0205-0.0889,0.0039-0.127l5.3623-8.5029c0.0293-0.0479,0.085-0.0713,0.1406-0.0537
					c0.0528,0.0156,0.08991,0.0644,0.08991,0.1211v8.5019C21.61521,27.7759,21.5595,27.8325,21.49021,27.8325z M16.3544,27.5825
					h5.01081v-7.9453L16.3544,27.5825z"/>
			</g>
		</g>
		<g>
			<g>
				<path class="st1" d="M39.9628,30.8345c-0.1318-0.3008-0.3769-0.4453-0.7099-0.4453H25.4931v-1.0948h12.0117
					c0.333,0,0.5381-0.1513,0.6797-0.4179c0.1465-0.2803,0.1719-0.5576,0-0.8242L25.36421,8.3696
					C25.1523,8.0474,24.8603,7.9302,24.4531,8.0239c-0.3311,0.0791-0.5635,0.4053-0.5635,0.7637v21.6016H11.1845
					c-0.3027,0-0.5449,0.1445-0.708,0.4453c-0.1562,0.2881-0.1308,0.5605,0.0576,0.8203l4.0342,5.5215
					c0.1572,0.2138,0.374,0.3164,0.6504,0.3164H35.25c0.246,0,0.4628-0.1026,0.6503-0.3164l4.003-5.5215
					C40.0927,31.395,40.1201,31.1226,39.9628,30.8345L39.9628,30.8345z M25.4931,26.4966V11.5552l10.5674,16.1523H25.4931V26.4966z
					 M34.8457,35.9058H15.6083l-2.8476-3.8887h24.918L34.8457,35.9058z M34.8457,35.9058"/>
			</g>
			<g>
				<path class="st1" d="M35.25,37.6177H15.2187c-0.3193,0-0.5723-0.124-0.751-0.3672l-4.0342-5.5225
					c-0.2216-0.3047-0.2441-0.6259-0.06729-0.9531c0.18159-0.334,0.46479-0.5107,0.81829-0.5107h12.5801V8.7876
					c0-0.4219,0.2773-0.7939,0.6592-0.8848c0.458-0.1054,0.8027,0.0293,1.0449,0.3985L38.289,27.9839
					c0.1846,0.2861,0.1865,0.6055,0.0059,0.9512c-0.1729,0.3261-0.43169,0.4843-0.7901,0.4843H25.6181v0.8448h13.6348
					c0.3906,0,0.6758,0.1797,0.8242,0.5205c0.1738,0.3164,0.1504,0.6367-0.0732,0.9433l-4.002,5.5215
					C35.7851,37.4976,35.5351,37.6177,35.25,37.6177z M11.1845,30.5142c-0.2637,0-0.4599,0.124-0.5976,0.3799
					c-0.1319,0.2421-0.1162,0.4609,0.0488,0.6875l4.0332,5.5214c0.1318,0.1778,0.3115,0.2647,0.5498,0.2647H35.25
					c0.2128,0,0.3945-0.0889,0.5566-0.2744l3.9951-5.5117c0.167-0.2286,0.1826-0.4463,0.0518-0.6875
					c-0.11429-0.2588-0.3096-0.3799-0.6006-0.3799H25.4931c-0.0693,0-0.125-0.0557-0.125-0.125v-1.0948
					c0-0.0683,0.0557-0.125,0.125-0.125h12.0117c0.2686,0,0.4385-0.1054,0.56941-0.3515
					c0.13859-0.2656,0.14059-0.4873,0.00489-0.6983L25.2597,8.438c-0.18649-0.2832-0.4277-0.3731-0.7783-0.292
					c-0.2705,0.0645-0.4668,0.334-0.4668,0.6416v21.6016c0,0.0693-0.0557,0.125-0.125,0.125H11.1845z M34.8457,36.0308H15.6083
					c-0.04,0-0.07709-0.0196-0.1005-0.0508l-2.8477-3.8887c-0.0283-0.039-0.0322-0.0889-0.0107-0.1308
					c0.0214-0.042,0.0644-0.0684,0.1113-0.0684h24.918c0.0468,0,0.0898,0.0264,0.1113,0.0684
					c0.0215,0.0419,0.0176,0.0918-0.01079,0.1308l-2.833,3.8887C34.9228,36.0112,34.8857,36.0308,34.8457,36.0308z M15.6718,35.7808
					h19.11041l2.65039-3.6387H13.0068L15.6718,35.7808z M36.0605,27.8325H25.4931c-0.0693,0-0.125-0.0566-0.125-0.125V11.5552
					c0-0.0547,0.03611-0.1035,0.0889-0.1192c0.0556-0.0175,0.1103,0.0039,0.1406,0.0508L36.165,27.6392
					c0.0254,0.039,0.0273,0.0879,0.0058,0.1279C36.1484,27.8071,36.1064,27.8325,36.0605,27.8325z M25.6181,27.5825h10.211
					l-10.211-15.6074V27.5825z"/>
			</g>
		</g>
		<g>
			<g>
				<path class="st1" d="M21.663,34.523c0.32621-0.3116,0.333-0.8223,0-1.125c-0.3027-0.3301-0.8154-0.3223-1.1269,0
					c-0.29589,0.3086-0.3028,0.8232,0,1.125C20.8398,34.8267,21.3535,34.8179,21.663,34.523L21.663,34.523z M21.663,34.523"/>
			</g>
			<g>
				<path class="st1" d="M21.0927,34.8726L21.0927,34.8726c-0.247,0-0.47649-0.0928-0.64549-0.2618c-0.34571-0.3437-0.34671-0.9394-0.001-1.2988
					c0.34959-0.3633,0.97559-0.3633,1.30859,0.002c0.1748,0.1582,0.27741,0.3847,0.2803,0.6289
					c0.0029,0.25-0.1006,0.4941-0.2861,0.6699C21.5761,34.7778,21.3369,34.8726,21.0927,34.8726z M21.1064,33.2788
					c-0.1807,0-0.3516,0.0723-0.4805,0.2061c-0.2529,0.2636-0.2539,0.6982-0.0019,0.9502c0.122,0.1211,0.2881,0.1875,0.4687,0.1875
					l0,0c0.1807,0,0.3574-0.0694,0.4844-0.1895c0.1348-0.1289,0.21-0.3066,0.208-0.4863c-0.00189-0.1758-0.0752-0.3379-0.206-0.457
					C21.4501,33.3511,21.2851,33.2788,21.1064,33.2788z"/>
			</g>
		</g>
		<g>
			<g>
				<path class="st1" d="M19.6845,34.523c0.3242-0.3116,0.3321-0.8223,0-1.125c-0.3056-0.3301-0.8164-0.3223-1.1289,0
					c-0.2959,0.3086-0.3017,0.8232,0,1.125C18.8603,34.8267,19.373,34.8179,19.6845,34.523L19.6845,34.523z M19.6845,34.523"/>
			</g>
			<g>
				<path class="st1" d="M19.11321,34.8726L19.11321,34.8726c-0.248,0-0.47651-0.0928-0.64551-0.2618
					c-0.3457-0.3447-0.3467-0.9404-0.0019-1.2988c0.3535-0.3652,0.9707-0.3662,1.3105,0.001
					c0.1738,0.1582,0.2764,0.3838,0.2793,0.6289c0.0029,0.249-0.1006,0.4941-0.2842,0.6709
					C19.5947,34.7808,19.3603,34.8726,19.11321,34.8726z M19.1259,33.2788c-0.1806,0-0.3515,0.0723-0.4804,0.2061
					c-0.252,0.2627-0.253,0.6982-0.001,0.9502c0.1211,0.1211,0.2881,0.1875,0.46871,0.1875l0,0
					c0.18069,0,0.35749-0.0694,0.48539-0.1905c0.1338-0.1279,0.209-0.3056,0.207-0.4873c-0.0019-0.1738-0.0752-0.3359-0.2051-0.455
					C19.4707,33.3511,19.3046,33.2788,19.1259,33.2788z"/>
			</g>
		</g>
		<g>
			<g>
				<path class="st1" d="M17.7041,34.523c0.3027-0.3018,0.2968-0.8164,0-1.125c-0.3106-0.3223-0.8174-0.3223-1.128,0
					c-0.29689,0.3086-0.3037,0.8232,0,1.125C16.8798,34.8267,17.4003,34.8267,17.7041,34.523L17.7041,34.523z M17.7041,34.523"/>
			</g>
			<g>
				<path class="st1" d="M17.1406,34.8755c-0.2471,0-0.48439-0.0967-0.6533-0.2647c-0.3467-0.3437-0.3477-0.9394-0.001-1.2988
					c0.3467-0.3613,0.959-0.3623,1.3076-0.001c0.3457,0.3594,0.3447,0.9551-0.002,1.2998
					C17.624,34.7788,17.3867,34.8755,17.1406,34.8755z M17.1406,33.2808c-0.1797,0-0.3477,0.0722-0.4746,0.2041
					c-0.2539,0.2636-0.2549,0.6982-0.002,0.9492c0.24421,0.2432,0.709,0.2441,0.95121,0.001
					c0.25289-0.252,0.25189-0.6875-0.001-0.9512C17.4873,33.353,17.3193,33.2808,17.1406,33.2808z"/>
			</g>
		</g>
	</g>
	<g>
		<g>
			<path class="st1" d="M25,2.0005c12.6826,0,23,10.3174,23,23c0,12.6816-10.3174,22.999-23,22.999c-12.6827,0-23-10.3174-23-22.999
				C2,12.3179,12.3173,2.0005,25,2.0005 M25,0.0005c-13.8067,0-25,11.1934-25,25s11.1933,24.999,25,24.999
				c13.8076,0,25-11.1924,25-24.999S38.8076,0.0005,25,0.0005L25,0.0005z"/>
		</g>
	</g>
</g>
</svg>
