<?xml version="1.0" encoding="utf-8"?>
<!-- Generator: Adobe Illustrator 21.1.0, SVG Export Plug-In . SVG Version: 6.00 Build 0)  -->
<svg version="1.1" id="Слой_1" xmlns="http://www.w3.org/2000/svg" xmlns:xlink="http://www.w3.org/1999/xlink" x="0px" y="0px"
	 width="50px" height="50px" viewBox="0 0 50 50" style="enable-background:new 0 0 50 50;" xml:space="preserve">
<style type="text/css">
	.st0{opacity:0.5;}
	.st1{fill:#FFFFFF;}
</style>
<g class="st0">
	<g>
		<g>
			<path class="st1" d="M25,2c12.6817,0,23,10.3184,23,23c0,12.6826-10.3183,23-23,23C12.3164,48,2,37.6826,2,25
				C2,12.3184,12.3164,2,25,2 M25,0C11.1934,0,0,11.1934,0,25c0,13.8076,11.1934,25,25,25c13.8067,0,25-11.1924,25-25
				C50,11.1934,38.8067,0,25,0L25,0z"/>
		</g>
	</g>
	<g>
		<g>
			<path class="st1" d="M33.4043,12.2441H16.59381c-0.46681,0-0.84771,0.3809-0.84771,0.8496v23.8135
				c0,0.4688,0.3809,0.8487,0.84771,0.8487H33.4043c0.4688,0,0.8496-0.3799,0.8496-0.8487V13.0937
				C34.2539,12.625,33.8731,12.2441,33.4043,12.2441L33.4043,12.2441z M20.2442,13.9424H22.75v4.5693l-0.78119-0.5205
				c-0.14261-0.0947-0.30671-0.1435-0.47071-0.1435c-0.1641,0-0.3281,0.0488-0.4707,0.1435l-0.7832,0.5205V13.9424z
				 M18.5469,13.9424v6.1553c0,0.3134,0.1738,0.6015,0.4492,0.749c0.2754,0.1484,0.6114,0.1318,0.8711-0.041l1.6309-1.0889
				l1.6308,1.0889c0.1407,0.0937,0.3047,0.1425,0.4707,0.1425c0.1368,0,0.2735-0.0351,0.4004-0.1015
				c0.2754-0.1475,0.4473-0.4356,0.4473-0.749v-6.1553h8.1094v17.9131H17.4434V13.9424H18.5469z M17.4434,36.0586v-2.5059h15.1133
				v2.5059H17.4434z M17.4434,36.0586"/>
		</g>
		<g>
			<path class="st1" d="M25,33.9775c-0.2226,0-0.4433,0.0918-0.5996,0.25c-0.1582,0.1573-0.25,0.376-0.25,0.5987
				c0,0.2246,0.0918,0.4433,0.25,0.6006c0.1563,0.1582,0.377,0.249,0.5996,0.249c0.2227,0,0.4414-0.0908,0.5996-0.249
				c0.15821-0.1573,0.2481-0.377,0.2481-0.6006c0-0.2227-0.08989-0.4414-0.2481-0.5987C25.4414,34.0693,25.2246,33.9775,25,33.9775
				L25,33.9775z M25,33.9775"/>
		</g>
		<g>
			<path class="st1" d="M27.80081,20.9482h2.80279c0.4667,0,0.8476-0.3808,0.8476-0.8505c0-0.4688-0.3809-0.8477-0.8476-0.8477
				h-2.80279c-0.46871,0-0.84761,0.3789-0.84761,0.8477C26.9532,20.5674,27.3321,20.9482,27.80081,20.9482L27.80081,20.9482z
				 M27.80081,20.9482"/>
		</g>
		<g>
			<path class="st1" d="M19.3965,23.749h11.2071c0.4687,0,0.8476-0.3808,0.8476-0.8486c0-0.4697-0.3789-0.8496-0.8476-0.8496
				H19.3965c-0.46869,0-0.8496,0.3799-0.8496,0.8496C18.5469,23.3682,18.92781,23.749,19.3965,23.749L19.3965,23.749z
				 M19.3965,23.749"/>
		</g>
		<g>
			<path class="st1" d="M19.3965,26.5498h11.2071c0.4687,0,0.8476-0.3789,0.8476-0.8486c0-0.4698-0.3789-0.8496-0.8476-0.8496
				H19.3965c-0.46869,0-0.8496,0.3798-0.8496,0.8496C18.5469,26.1709,18.92781,26.5498,19.3965,26.5498L19.3965,26.5498z
				 M19.3965,26.5498"/>
		</g>
		<g>
			<path class="st1" d="M19.3965,29.3516h11.2071c0.4687,0,0.8476-0.3799,0.8476-0.8497c0-0.4677-0.3789-0.8496-0.8476-0.8496
				H19.3965c-0.46869,0-0.8496,0.3819-0.8496,0.8496C18.5469,28.9717,18.92781,29.3516,19.3965,29.3516L19.3965,29.3516z
				 M19.3965,29.3516"/>
		</g>
	</g>
</g>
</svg>
